<?xml version="1.0" encoding="UTF-8"?>
<svg width="32" height="32" viewBox="0 0 32 32" xmlns="http://www.w3.org/2000/svg">
  <defs>
    <linearGradient id="faviconShieldGradient" x1="0%" y1="0%" x2="100%" y2="100%">
      <stop offset="0%" style="stop-color:#1e40af;stop-opacity:1" />
      <stop offset="50%" style="stop-color:#0891b2;stop-opacity:1" />
      <stop offset="100%" style="stop-color:#7c3aed;stop-opacity:1" />
    </linearGradient>
    
    <linearGradient id="faviconEyeGradient" x1="0%" y1="0%" x2="100%" y2="100%">
      <stop offset="0%" style="stop-color:#06b6d4;stop-opacity:1" />
      <stop offset="100%" style="stop-color:#3b82f6;stop-opacity:1" />
    </linearGradient>
  </defs>
  
  <!-- Favicon Shield -->
  <path d="M 6 5 Q 6 3 8 3 L 24 3 Q 26 3 26 5 L 26 14 Q 26 22 16 28 Q 6 22 6 14 Z" 
        fill="url(#faviconShieldGradient)" 
        stroke="rgba(255,255,255,0.3)" 
        stroke-width="0.5"/>
  
  <!-- Simplified neural network -->
  <g opacity="0.7">
    <line x1="9" y1="10" x2="23" y2="10" stroke="rgba(255,255,255,0.9)" stroke-width="0.8"/>
    <line x1="10" y1="16" x2="22" y2="16" stroke="rgba(255,255,255,0.9)" stroke-width="0.8"/>
    <line x1="12" y1="22" x2="20" y2="22" stroke="rgba(255,255,255,0.9)" stroke-width="0.8"/>
    
    <circle cx="13" cy="10" r="1" fill="rgba(255,255,255,0.95)"/>
    <circle cx="16" cy="10" r="1" fill="rgba(255,255,255,0.95)"/>
    <circle cx="19" cy="10" r="1" fill="rgba(255,255,255,0.95)"/>
    <circle cx="16" cy="16" r="1" fill="rgba(255,255,255,0.95)"/>
  </g>
  
  <!-- Central Eye -->
  <ellipse cx="16" cy="15" rx="5" ry="3.5" fill="url(#faviconEyeGradient)" opacity="0.95"/>
  <circle cx="16" cy="15" r="2.5" fill="#ffffff" opacity="0.98"/>
  <circle cx="16" cy="15" r="1.5" fill="#1e40af"/>
  <circle cx="16.5" cy="14.5" r="0.5" fill="#ffffff" opacity="0.8"/>
</svg>
